PathFileType	4	(X/Y/Z)	Apose_0-50.trc
DataRate	CameraRate	NumFrames	NumMarkers	Units	OrigDataRate	OrigDataStartFrame	OrigNumFrames
30	30	5	22	m	30	30	50
Frame#	Time	Hip			RHip			RKnee			RAnkle			RBigToe			RSmallToe			RHeel			LHip			LKnee			LAnkle			LBigToe			LSmallToe			LHeel			Neck			Head			Nose			RShoulder			RElbow			RWrist			LShoulder			LElbow			LWrist		
		X1	Y1	Z1	X2	Y2	Z2	X3	Y3	Z3	X4	Y4	Z4	X5	Y5	Z5	X6	Y6	Z6	X7	Y7	Z7	X8	Y8	Z8	X9	Y9	Z9	X10	Y10	Z10	X11	Y11	Z11	X12	Y12	Z12	X13	Y13	Z13	X14	Y14	Z14	X15	Y15	Z15	X16	Y16	Z16	X17	Y17	Z17	X18	Y18	Z18	X19	Y19	Z19	X20	Y20	Z20	X21	Y21	Z21	X22	Y22	Z22
31	1.0333333333333334	0.035126549540775064	0.921167904049415	0.35435176035120153	0.026416302004482535	0.8810499327047624	0.4614232126249788	0.003977411558179485	0.5077689689511867	0.49497007317523356	-0.0053031261387283795	0.11209548197523314	0.514641316870745	0.20165665998013896	0.030564563152574546	0.5665770631678035	0.14760687145430587	0.030687690550966013	0.6290532059539033	-0.03581742124569079	0.03730499035893542	0.49664693349159295	0.028446223943698622	0.8803718727579667	0.2431415268938779	0.0114575024196925	0.5078790817316371	0.2244253545434676	0.0036563614035834053	0.12249641112982566	0.2084712370571062	0.22121593660890354	0.047813010513908995	0.187498977504126	0.16729242159321522	0.03375487758642754	0.12507907532326087	-0.04798459616864944	0.047026544141389806	0.20727811972684357	0.04680583566952816	1.57279224713955	0.3465463327810805	0.24536607749860528	1.7623525487755558	0.32997764590854917	0.26231630088868946	1.5960747652369376	0.33008488748359066	0.01984004448116421	1.4914400906085856	0.5304805112411105	0.07138167748820481	1.2357147823894017	0.7156250805550308	0.11855855554842465	1.0453204615066956	0.8861701420118622	0.014690925626000577	1.4814292466745513	0.1447846261226249	0.029031740866018604	1.2259519020419685	0.0004231876483548045	0.07822777624583126	1.0192675844302292	-0.1503236090456305
32	1.0666666666666669	0.035460041709869945	0.9208581401688523	0.3539191957199412	0.026929341393814962	0.8809454778790055	0.46100655779269	0.004221450218565969	0.5080500635540439	0.4950751001135131	-0.005455967947232118	0.11199546393566039	0.5146067348279935	0.20195547880932518	0.030401216062737886	0.5666504926723209	0.14737488564576065	0.0305466840825938	0.6292378359088399	-0.03547067951501755	0.03690417726740136	0.4961222608287289	0.028592468007938774	0.8802404739604056	0.24279533229947614	0.011677024496653246	0.5077207147912185	0.2241488589754511	0.0033903653832909582	0.12291021059699704	0.2086710975685985	0.22129432825334241	0.04822438570311734	0.18719694786611932	0.16709255785359267	0.0338417394333245	0.12525476030428956	-0.0482226382089508	0.04690155258492102	0.20770312176797	0.04694311167981796	1.573001157781324	0.3466852281992645	0.25169986825001334	1.7636096846756073	0.32407723706079733	0.24567088779726426	1.5895379978486694	0.329230330772369	0.020169642371761318	1.4917409900315612	0.5302970773943704	0.06922616538065023	1.234870724809266	0.7150857068127828	0.11954593746178822	1.0449669977047873	0.8863633724855842	0.014902979984532789	1.4815108699515651	0.144806925292488	0.029041129186622112	1.2258150849502785	0.00031546158291445917	0.07791085568941963	1.0202040144773683	-0.1502706703233288
33	1.1	0.03589455169498807	0.9205629867924572	0.3536559630041646	0.02757324479978007	0.8807983063798157	0.46070481661803836	0.004498839470965753	0.5082637030779283	0.4951183054513867	-0.005885299381788427	0.11214320203689435	0.5147133670660727	0.20195266206102622	0.030481838420206644	0.5665992803969887	0.147267081385303	0.030466482338496012	0.6293297317571105	-0.03592256735762996	0.037075826571348766	0.4962270383461238	0.02883657016838665	0.8801402929826937	0.24264631357912073	0.012058251899062053	0.5075152787542627	0.2238703003788287	0.0032038092379880617	0.1230283152427566	0.20884707962189406	0.22121092480997823	0.04842724959030933	0.18702842753831583	0.16688992721420728	0.033965630423957865	0.1253670818090419	-0.047808505355041414	0.04838427925520936	0.2074153040548447	0.04712391597141644	1.5732160890904727	0.3467345637987264	0.2613296477659453	1.7656349431940221	0.3146630901576386	0.23398503661989178	1.5854686577365575	0.32878234902745584	0.020524238697715545	1.4919604471368795	0.530083429740331	0.0666757843284971	1.234016530809321	0.7144642440210234	0.12046956466384655	1.0447193696746198	0.8865290888723861	0.015045605544644406	1.4815610926289562	0.14483815494839763	0.02880614504803403	1.225614113258139	0.0002728197991865071	0.07787380303071491	1.0210974024480663	-0.15008253442946098
34	1.1333333333333333	0.036492826494663205	0.9203833963484597	0.35362834505197877	0.028302393426689935	0.88061644314643	0.46057438043008175	0.0047982794850273194	0.5083047539632651	0.49509678742634294	-0.006613655278742809	0.11271051827002079	0.5149279118609558	0.20146515514552427	0.03060478027404336	0.5662064100779917	0.1474420508575533	0.030445151694506394	0.6292205232443969	-0.03697103053683416	0.03765526021374764	0.49694105471559696	0.029282062067951888	0.8800929215735026	0.2426849006951868	0.012600206013227755	0.507363136451199	0.22358933611022402	0.003281338376817518	0.12254256575822703	0.20903255960719333	0.2210718085925178	0.0483685543301031	0.18698544816192947	0.16672937192356332	0.034079385210019644	0.1253870860840622	-0.04702243857020126	0.050825470253884016	0.2066779850125302	0.04738907120806757	1.5733671547408659	0.3466488406556934	0.2706685950147562	1.7683372232196426	0.3047485250097963	0.2291682220297323	1.5849422369906156	0.3288730379259598	0.020854706276618843	1.4920469832712604	0.5298457457189685	0.06470408439997011	1.2333474916005192	0.7139853020581002	0.12131975691522598	1.0445915982463758	0.8866370857400852	0.015050359781317519	1.4815068450146458	0.14492419556638766	0.028466659304025393	1.2254270098553088	0.0003066014903356901	0.07800343660273788	1.021490541721561	-0.1497282108303875
35	1.1666666666666667	0.037255797964015167	0.9204097921952881	0.3538176000166482	0.029103523858232762	0.8804455028590815	0.46059986726887087	0.005115704060270245	0.5081825697456049	0.4950582377507724	-0.0074642500231272835	0.11355788217410616	0.5151793987502862	0.20037933755374718	0.030753944683600168	0.5653513462512351	0.1479519104466381	0.03049174875047244	0.6288659514602937	-0.03834938512830327	0.038420886993031284	0.4981271086535713	0.029993826132325162	0.880130493205017	0.24284938418061908	0.013236276344033151	0.5073229352179258	0.22332182544133986	0.003648613238233131	0.12139485396650937	0.20919544944002913	0.22100205500056935	0.048063435659795414	0.18700910485518366	0.16663058157199073	0.03414122105598799	0.12530936862052067	-0.04613878180039884	0.05345970920458543	0.20574046419335082	0.047865325790444856	1.5734271819705392	0.3463637340761624	0.2754363936336554	1.7715414478830251	0.2980618045036604	0.23139550703602974	1.5882992096654107	0.32952761372608314	0.02112273302240818	1.4919959729644647	0.5295247475162114	0.06450857300137632	1.2330476763267548	0.7138429999447404	0.122121810029813	1.0445497480549404	0.8866803523873281	0.014892382259955705	1.4812800464186942	0.14507268352491404	0.028222412226229728	1.225314453659506	0.0004339469425094721	0.07822364108623583	1.021182077361727	-0.14921668322838547
